<svg width="24" height="24" viewBox="0 0 24 24" fill="none" xmlns="http://www.w3.org/2000/svg">
<path d="M3 3C2.32033 2.99995 1.66078 3.23071 1.12938 3.65446C0.597983 4.07822 0.226227 4.66986 0.075 5.3325L12 12.621L23.925 5.3325C23.7738 4.66986 23.402 4.07822 22.8706 3.65446C22.3392 3.23071 21.6797 2.99995 21 3H3ZM0 17.7V7.047L8.7045 12.366L0 17.7ZM10.1415 13.245L0.2865 19.284C0.529775 19.7977 0.913983 20.2317 1.39438 20.5355C1.87478 20.8393 2.4316 21.0004 3 21H12.384C12.129 20.2773 11.9991 19.5164 12 18.75C11.999 17.7646 12.2142 16.7911 12.6304 15.8979C13.0466 15.0048 13.6538 14.2139 14.409 13.581L13.8585 13.2435L12 14.379L10.1415 13.245ZM24 14.5065V7.0455L15.2955 12.3645L15.8025 12.6765C16.7209 12.2301 17.7289 11.9987 18.75 12C20.871 12 22.7625 12.978 24 14.5065Z" fill="url(#paint0_linear_379_3)"/>
<path d="M23.751 18.366C23.751 20.118 22.8855 21.4035 21.3705 21.4035C20.616 21.4035 19.8675 21.0615 19.6905 20.4315H19.626C19.449 21.0555 18.8115 21.396 18.1035 21.396C16.9485 21.396 16.215 20.583 16.215 19.245V18.4515C16.215 17.1855 16.9365 16.3515 18.105 16.3515C18.9825 16.3515 19.41 16.851 19.5345 17.2965H19.5795V16.4445H20.937V19.7295C20.937 20.1375 21.207 20.3595 21.5535 20.3595C22.026 20.3595 22.512 19.737 22.512 18.2745V18.0975C22.512 16.182 21.087 14.6085 18.786 14.6085H18.726C16.353 14.6085 14.766 16.209 14.766 18.6945V18.93C14.766 21.7305 16.6215 22.911 18.621 22.911H18.6885C19.449 22.911 20.091 22.806 20.4585 22.641V23.7375C20.13 23.8875 19.494 24 18.603 24H18.537C15.657 24 13.5 22.23 13.5 18.969V18.648C13.5 15.54 15.6315 13.5 18.7275 13.5H18.78C21.96 13.5 23.751 15.645 23.751 18.051V18.366ZM17.691 18.681V19.0215C17.691 19.9005 18.0315 20.2215 18.5625 20.2215C19.0275 20.2215 19.4085 19.9665 19.4085 19.107V18.5565C19.4085 17.7825 18.996 17.4945 18.5505 17.4945C18.0315 17.4945 17.691 17.862 17.691 18.681Z" fill="url(#paint1_linear_379_3)"/>
<defs>
<linearGradient id="paint0_linear_379_3" x1="12" y1="3" x2="12" y2="21" gradientUnits="userSpaceOnUse">
<stop stop-color="#B6F829"/>
<stop offset="1" stop-color="#67DD0A"/>
</linearGradient>
<linearGradient id="paint1_linear_379_3" x1="18.6255" y1="13.5" x2="18.6255" y2="24" gradientUnits="userSpaceOnUse">
<stop stop-color="#B6F829"/>
<stop offset="1" stop-color="#67DD0A"/>
</linearGradient>
</defs>
</svg>
