<svg width="24" height="24" viewBox="0 0 24 24" fill="none" xmlns="http://www.w3.org/2000/svg">
<g clip-path="url(#clip0_379_6)">
<mask id="mask0_379_6" style="mask-type:luminance" maskUnits="userSpaceOnUse" x="0" y="0" width="24" height="24">
<path d="M24 0H0V24H24V0Z" fill="white"/>
</mask>
<g mask="url(#mask0_379_6)">
<path d="M20.4015 3.48908C19.3012 2.3786 17.9908 1.49819 16.5469 0.899181C15.103 0.300172 13.5543 -0.0054664 11.991 7.39957e-05C5.4405 7.39957e-05 0.102 5.33708 0.096 11.8891C0.096 13.9876 0.645 16.029 1.6815 17.8365L0 24L6.306 22.347C8.0505 23.2965 10.0049 23.794 11.991 23.7945H11.997C18.549 23.7945 23.886 18.4575 23.892 11.8996C23.8935 10.3366 23.5857 8.78886 22.9864 7.3454C22.387 5.90193 21.5095 4.59132 20.4015 3.48908ZM11.991 21.7815C10.2195 21.7821 8.48055 21.3054 6.957 20.4015L6.597 20.1855L2.856 21.1665L3.855 17.5171L3.621 17.1405C2.63072 15.5661 2.10697 13.7431 2.1105 11.8831C2.1105 6.44408 6.546 2.00708 11.997 2.00708C13.2956 2.00475 14.5818 2.25948 15.7815 2.75661C16.9812 3.25374 18.0707 3.98341 18.987 4.90357C19.9065 5.82015 20.6355 6.90971 21.1319 8.10942C21.6282 9.30914 21.8822 10.5952 21.879 11.8936C21.873 17.352 17.4375 21.7815 11.991 21.7815ZM17.4135 14.3806C17.118 14.2321 15.6585 13.5136 15.384 13.4116C15.111 13.3141 14.9115 13.2631 14.7165 13.5601C14.517 13.8556 13.947 14.5291 13.776 14.7226C13.605 14.9221 13.428 14.9446 13.131 14.7976C12.8355 14.6476 11.877 14.3356 10.743 13.3201C9.858 12.5326 9.2655 11.5576 9.0885 11.2621C8.9175 10.9651 9.072 10.8061 9.2205 10.6576C9.351 10.5256 9.516 10.3096 9.6645 10.1386C9.8145 9.96757 9.864 9.84157 9.9615 9.64357C10.059 9.44257 10.0125 9.27157 9.939 9.12307C9.864 8.97457 9.2715 7.50908 9.021 6.91808C8.781 6.33458 8.5365 6.41557 8.3535 6.40807C8.1825 6.39757 7.983 6.39757 7.7835 6.39757C7.63284 6.40132 7.4846 6.43617 7.34804 6.49992C7.21149 6.56369 7.0896 6.65498 6.99 6.76808C6.717 7.06508 5.9535 7.78357 5.9535 9.24907C5.9535 10.7146 7.0185 12.1231 7.1685 12.3226C7.3155 12.5221 9.2595 15.5205 12.243 16.8105C12.948 17.118 13.503 17.2995 13.9365 17.4375C14.649 17.6655 15.2925 17.631 15.8055 17.5575C16.3755 17.4705 17.562 16.8375 17.8125 16.143C18.0585 15.447 18.0585 14.8531 17.9835 14.7286C17.91 14.6026 17.7105 14.5291 17.4135 14.3806Z" fill="url(#paint0_linear_379_6)"/>
</g>
</g>
<defs>
<linearGradient id="paint0_linear_379_6" x1="11.946" y1="0" x2="11.946" y2="24" gradientUnits="userSpaceOnUse">
<stop stop-color="#B6F829"/>
<stop offset="1" stop-color="#67DD0A"/>
</linearGradient>
<clipPath id="clip0_379_6">
<rect width="24" height="24" fill="white"/>
</clipPath>
</defs>
</svg>
